<?xml version="1.0" encoding="UTF-8" standalone="no"?>
<svg
   xmlns:dc="http://purl.org/dc/elements/1.1/"
   xmlns:cc="http://creativecommons.org/ns#"
   xmlns:rdf="http://www.w3.org/1999/02/22-rdf-syntax-ns#"
   xmlns:svg="http://www.w3.org/2000/svg"
   xmlns="http://www.w3.org/2000/svg"
   xmlns:sodipodi="http://sodipodi.sourceforge.net/DTD/sodipodi-0.dtd"
   xmlns:inkscape="http://www.inkscape.org/namespaces/inkscape"
   sodipodi:docname="anonymousUser.svg"
   inkscape:version="1.0 (1.0+r73+1)"
   id="svg8"
   version="1.1"
   viewBox="0 0 37.253334 39.962666"
   height="39.962666mm"
   width="37.253334mm">
  <defs
     id="defs2" />
  <sodipodi:namedview
     inkscape:window-maximized="1"
     inkscape:window-y="27"
     inkscape:window-x="72"
     inkscape:window-height="1016"
     inkscape:window-width="1848"
     fit-margin-bottom="0"
     fit-margin-right="0"
     fit-margin-left="0"
     fit-margin-top="0"
     showgrid="false"
     inkscape:document-rotation="0"
     inkscape:current-layer="layer1"
     inkscape:document-units="mm"
     inkscape:cy="66.90879"
     inkscape:cx="51.6255"
     inkscape:zoom="3.9664898"
     inkscape:pageshadow="2"
     inkscape:pageopacity="0.0"
     borderopacity="1.0"
     bordercolor="#666666"
     pagecolor="#ffffff"
     id="base" />
  <metadata
     id="metadata5">
    <rdf:RDF>
      <cc:Work
         rdf:about="">
        <dc:format>image/svg+xml</dc:format>
        <dc:type
           rdf:resource="http://purl.org/dc/dcmitype/StillImage" />
        <dc:title></dc:title>
      </cc:Work>
    </rdf:RDF>
  </metadata>
  <g
     style="opacity:0.699857"
     transform="translate(-46.976597,-54.235767)"
     id="layer1"
     inkscape:groupmode="layer"
     inkscape:label="Layer 1">
    <path
       id="path923"
       d="m 73.687467,82.551538 c 0,0 1.330902,1.234522 1.886646,-0.829757 0,0 1.236814,-2.49187 1.619586,-4.869233 l -2.96713,-2.092091 -2.582066,4.238415 z"
       style="fill:#ca6b00;fill-opacity:1;stroke:none;stroke-width:0.264583px;stroke-linecap:butt;stroke-linejoin:miter;stroke-opacity:1" />
    <path
       id="path927"
       d="m 57.90678,82.010862 c 0,0 -1.556825,0.919719 -1.719954,-1.570409 0,0 -1.261507,-2.95642 -0.603986,-4.039365 l 3.373292,-0.751961 z"
       style="fill:#ca6b00;fill-opacity:1;stroke:none;stroke-width:0.264583px;stroke-linecap:butt;stroke-linejoin:miter;stroke-opacity:1" />
    <path
       id="path917"
       d="m 74.012701,81.710357 c 0,0 2.365091,-2.065911 0.771644,-4.448618 0,0 3.024878,0.234094 4.376714,-1.80035 0,0 2.941628,-11.139274 -6.592602,-13.47327 0,0 -12.51976,-11.848549 -17.794191,4.892997 0,0 -3.003645,4.257273 0.966125,6.092318 l 0.05056,0.576018 c 0,0 -1.264049,-0.319299 -2.190756,-1.483163 -0.926706,-1.163864 -0.926706,-1.163864 -0.926706,-1.163864 0,0 1.07567,4.827462 2.622262,4.012274 0,0 1.022572,5.124565 1.56149,5.280819 0.538918,0.156253 0.538918,0.128787 0.538918,0.128787 0,0 0.274309,-4.025909 0.274309,-4.025909 l 8.898202,-5.84083 6.186293,3.903072 z"
       style="fill:#000000;fill-opacity:1;stroke:none;stroke-width:0.264583px;stroke-linecap:butt;stroke-linejoin:miter;stroke-opacity:1" />
    <path
       id="path931"
       d="m 52.525442,94.284851 c 0,0 6.483222,-3.731257 7.292166,-3.223127 l 12.499006,-0.397102 c 0,0 5.133808,2.499445 10.101075,3.567038 z"
       style="fill:#1a5598;fill-opacity:1;stroke:none;stroke-width:0.264583px;stroke-linecap:butt;stroke-linejoin:miter;stroke-opacity:1" />
    <path
       id="path929"
       d="m 59.57548,86.299147 0.242128,4.762577 c 0,0 -1.887277,0.384676 -1.706773,3.031045 l 16.456281,0.06204 c 0,0 0.584585,-2.900011 -2.250502,-3.490187 l -0.520845,-4.137288 z"
       style="fill:#98481a;fill-opacity:1;stroke:none;stroke-width:0.264583px;stroke-linecap:butt;stroke-linejoin:miter;stroke-opacity:1" />
    <path
       id="path915"
       d="m 57.90678,82.010862 c 0,0 1.161059,5.31159 5.349281,7.902268 0,0 3.783417,1.360519 6.821808,-0.966301 0,0 3.838183,-2.87246 4.706476,-11.68509 0,0 -0.959279,-5.167902 -2.059278,-7.183215 0,0 -1.526202,-0.747459 -0.636832,-3.281259 0,0 -1.848349,-1.231568 -3.625429,2.018523 0,0 -3.306215,2.560817 -6.4653,1.177475 0,0 -2.740188,0.666186 -3.418252,3.45523 0,0 -1.541793,-0.634572 -0.908786,2.849903 0,0 -1.22235,3.238005 0.236312,5.712466 z"
       style="fill:#bda496;fill-opacity:1;stroke:none;stroke-width:0.264583px;stroke-linecap:butt;stroke-linejoin:miter;stroke-opacity:1" />
  </g>
</svg>
